<svg xmlns="http://www.w3.org/2000/svg" version="1.1" xmlns:xlink="http://www.w3.org/1999/xlink" xmlns:svgjs="http://svgjs.dev/svgjs" width="1500" height="935" viewBox="0 0 1500 935"><g transform="matrix(1,0,0,1,-0.9090909090909918,0.3785425101214628)"><svg viewBox="0 0 396 247" data-background-color="#ffffff" preserveAspectRatio="xMidYMid meet" height="935" width="1500" xmlns="http://www.w3.org/2000/svg" xmlns:xlink="http://www.w3.org/1999/xlink"><g id="tight-bounds" transform="matrix(1,0,0,1,0.2400000000000091,-0.09999999999999432)"><svg viewBox="0 0 395.52 247.2" height="247.2" width="395.52"><g><svg></svg></g><g><svg viewBox="0 0 395.52 247.2" height="247.2" width="395.52"><mask id="811c420e-ec8d-45e4-8868-395b6fbc9e1a"><rect width="395.52" height="247.2" fill="white"></rect><g transform="matrix(1,0,0,1,98.71901591895801,37.08)" id="clone"><svg viewBox="0 0 198.08196816208397 173.04" height="173.04" width="198.08196816208397"><g><svg viewBox="0 0 198.08196816208397 173.04" height="173.04" width="198.08196816208397"><g><svg viewBox="0 0 198.08196816208397 173.04" height="173.04" width="198.08196816208397"><g><svg viewBox="0 0 198.08196816208397 173.04" height="173.04" width="198.08196816208397"><g id="SvgjsG6995"><svg viewBox="0 0 198.08196816208397 173.04" height="173.04" width="198.08196816208397" id="SvgjsSvg6994"><g><svg viewBox="0 0 198.08196816208397 173.04" height="173.04" width="198.08196816208397"><g transform="matrix(1,0,0,1,0,0)"><svg width="198.08196816208397" viewBox="0.7999999999999998 -32.55 40.550000000000004 35.55" height="173.04" data-palette-color="#e76a2e"><path d="M4.6 0L3.8 0 3.8-29.55 12.1-29.55Q14.25-29.55 15.83-28.48 17.4-27.4 17.4-24.7L17.4-24.7 17.4-20.55Q17.4-18.5 16.65-17.23 15.9-15.95 14.78-15.33 13.65-14.7 12.4-14.55L12.4-14.55Q13.2-14.45 14-13.43 14.8-12.4 15.15-11.2L15.15-11.2 18.6 0 17.75 0 14.7-10Q14.1-11.95 13.05-13.15 12-14.35 10.15-14.35L10.15-14.35 4.6-14.35 4.6 0ZM4.6-28.75L4.6-15.15 10.65-15.15Q13.2-15.15 14.9-16.35 16.6-17.55 16.6-20.45L16.6-20.45 16.6-24.55Q16.6-26.7 15.3-27.73 14-28.75 12.3-28.75L12.3-28.75 4.6-28.75ZM32.1 0L24.3 0 24.3-29.55 32.1-29.55Q33.9-29.55 35.3-29.03 36.7-28.5 37.52-27.1 38.35-25.7 38.35-23.05L38.35-23.05 38.35-6.5Q38.35-3.9 37.57-2.48 36.8-1.05 35.4-0.53 34 0 32.1 0L32.1 0ZM25.1-28.8L25.1-0.8 32.1-0.8Q34.65-0.8 36.1-1.98 37.55-3.15 37.55-6.75L37.55-6.75 37.55-22.75Q37.55-26.15 36.12-27.48 34.7-28.8 32.1-28.8L32.1-28.8 25.1-28.8Z" opacity="1" transform="matrix(1,0,0,1,0,0)" fill="black" class="wordmark-text-0" id="SvgjsPath6993" stroke-width="5" stroke="black" stroke-linejoin="round"></path></svg></g></svg></g></svg></g></svg></g></svg></g></svg></g></svg></g></mask><g mask="url(#811c420e-ec8d-45e4-8868-395b6fbc9e1a)"><g><path d="M142.548 247.2h-6.693v-247.2h69.434c11.991 0 22.392 2.984 31.203 8.951 8.756 6.023 13.134 16.564 13.134 31.622v0 34.716c0 11.433-2.091 20.691-6.274 27.774-4.183 7.139-9.397 12.437-15.644 15.894-6.302 3.514-12.939 5.689-19.909 6.525v0c4.462 0.558 8.923 3.681 13.384 9.37 4.462 5.744 7.668 11.963 9.621 18.655v0l28.861 93.693h-7.111l-25.515-83.655c-3.346-10.875-7.947-19.659-13.803-26.351-5.856-6.692-13.942-10.039-24.26-10.039v0h-46.428zM142.548 6.692v113.771h50.611c14.221 0 26.072-3.346 35.553-10.039 9.481-6.692 14.221-18.125 14.222-34.298v0-34.299c0-11.991-3.625-20.858-10.876-26.602-7.25-5.689-15.616-8.533-25.096-8.533v0z" fill="#b6aaaa" fill-rule="nonzero" stroke="none" stroke-width="1" stroke-linecap="butt" stroke-linejoin="miter" stroke-miterlimit="10" stroke-dasharray="" stroke-dashoffset="0" font-family="none" font-weight="none" font-size="none" text-anchor="none" style="mix-blend-mode: normal" data-fill-palette-color="tertiary"></path></g></g><g transform="matrix(1,0,0,1,98.71901591895801,37.08)"><svg viewBox="0 0 198.08196816208397 173.04" height="173.04" width="198.08196816208397"><g><svg viewBox="0 0 198.08196816208397 173.04" height="173.04" width="198.08196816208397"><g><svg viewBox="0 0 198.08196816208397 173.04" height="173.04" width="198.08196816208397"><g><svg viewBox="0 0 198.08196816208397 173.04" height="173.04" width="198.08196816208397"><g id="textblocktransform"><svg viewBox="0 0 198.08196816208397 173.04" height="173.04" width="198.08196816208397" id="textblock"><g><svg viewBox="0 0 198.08196816208397 173.04" height="173.04" width="198.08196816208397"><g transform="matrix(1,0,0,1,0,0)"><svg width="198.08196816208397" viewBox="0.7999999999999998 -32.55 40.550000000000004 35.55" height="173.04" data-palette-color="#e76a2e"><path d="M4.6 0L3.8 0 3.8-29.55 12.1-29.55Q14.25-29.55 15.83-28.48 17.4-27.4 17.4-24.7L17.4-24.7 17.4-20.55Q17.4-18.5 16.65-17.23 15.9-15.95 14.78-15.33 13.65-14.7 12.4-14.55L12.4-14.55Q13.2-14.45 14-13.43 14.8-12.4 15.15-11.2L15.15-11.2 18.6 0 17.75 0 14.7-10Q14.1-11.95 13.05-13.15 12-14.35 10.15-14.35L10.15-14.35 4.6-14.35 4.6 0ZM4.6-28.75L4.6-15.15 10.65-15.15Q13.2-15.15 14.9-16.35 16.6-17.55 16.6-20.45L16.6-20.45 16.6-24.55Q16.6-26.7 15.3-27.73 14-28.75 12.3-28.75L12.3-28.75 4.6-28.75ZM32.1 0L24.3 0 24.3-29.55 32.1-29.55Q33.9-29.55 35.3-29.03 36.7-28.5 37.52-27.1 38.35-25.7 38.35-23.05L38.35-23.05 38.35-6.5Q38.35-3.9 37.57-2.48 36.8-1.05 35.4-0.53 34 0 32.1 0L32.1 0ZM25.1-28.8L25.1-0.8 32.1-0.8Q34.65-0.8 36.1-1.98 37.55-3.15 37.55-6.75L37.55-6.75 37.55-22.75Q37.55-26.15 36.12-27.48 34.7-28.8 32.1-28.8L32.1-28.8 25.1-28.8Z" opacity="1" transform="matrix(1,0,0,1,0,0)" fill="#e76a2e" class="wordmark-text-0" data-fill-palette-color="primary" id="text-0"></path></svg></g></svg></g></svg></g></svg></g></svg></g></svg></g></svg></g></svg></g><defs></defs></svg><rect width="395.52" height="247.2" fill="none" stroke="none" visibility="hidden"></rect></g></svg></g></svg>